<svg xmlns="http://www.w3.org/2000/svg" version="1.1" xmlns:xlink="http://www.w3.org/1999/xlink" xmlns:svgjs="http://svgjs.dev/svgjs" width="1000" height="212" viewBox="0 0 1000 212"><g transform="matrix(1,0,0,1,-0.6060457815049176,0.5863536372365843)"><svg viewBox="0 0 396 84" data-background-color="#60777f" preserveAspectRatio="xMidYMid meet" height="212" width="1000" xmlns="http://www.w3.org/2000/svg" xmlns:xlink="http://www.w3.org/1999/xlink"><g id="tight-bounds" transform="matrix(1,0,0,1,0.2399941503226728,-0.23232875796631447)"><svg viewBox="0 0 395.52 84.46465626512868" height="84.46465626512868" width="395.52"><g><svg viewBox="0 0 517.332910805948 110.47822230446722" height="84.46465626512868" width="395.52"><g transform="matrix(1,0,0,1,121.81291080594801,34.13937427208326)"><svg viewBox="0 0 395.52 42.199473760300705" height="42.199473760300705" width="395.52"><g id="textblocktransform"><svg viewBox="0 0 395.52 42.199473760300705" height="42.199473760300705" width="395.52" id="textblock"><g><svg viewBox="0 0 395.52 42.199473760300705" height="42.199473760300705" width="395.52"><g transform="matrix(1,0,0,1,0,0)"><svg width="395.52" viewBox="0.6000000238418579 -35.900001525878906 345.8299865722656 36.900001525878906" height="42.199473760300705" data-palette-color="#ffffff"><path d="M38.5-2.4L35.9 0.7 35.1 1 26.8-22.9 19.7-2.4 17.1 0.7 16.3 1 5.1-31.3Q4.65-32.4 4.08-32.95 3.5-33.5 2.3-33.5L2.3-33.5 0.6-33.5 0.6-35 13-35 13-33.5 11.8-33.5Q9.6-33.5 9.6-32.2L9.6-32.2Q9.6-31.8 10-30.7L10-30.7 18.7-5.4 25.8-25.9 23.9-31.3Q23.3-32.9 22.85-33.2 22.4-33.5 21.6-33.5L21.6-33.5 21.2-33.5 21.2-35 32.4-35 32.4-33.5 30.6-33.5Q28.3-33.5 28.3-32.3L28.3-32.3Q28.3-31.7 28.7-30.7L28.7-30.7 37.5-5.4 46.1-30.1Q46.7-32.1 46.7-32.63 46.7-33.15 46.03-33.33 45.35-33.5 43.3-33.5L43.3-33.5 42.6-33.5 42.6-35 52.4-35 52.4-33.5 51.5-33.5Q49.9-33.5 49.4-33.05 48.9-32.6 48.4-31.1L48.4-31.1 38.5-2.4ZM83.5-6.9L81.8 0 55 0 55-1.4 56.7-1.4Q58.15-1.4 58.62-1.95 59.1-2.5 59.1-3.7L59.1-3.7 59.1-31.3Q59.1-32.3 58.47-32.95 57.85-33.6 56.7-33.6L56.7-33.6 55-33.6 55-35 81.4-35 81.8-28.1 80.4-27.8Q80.4-29.6 78.95-31.25 77.5-32.9 74.9-32.9L74.9-32.9 65.8-32.9Q64.3-32.9 63.85-32.33 63.4-31.75 63.4-30.7L63.4-30.7 63.4-19.3 73.4-19.3Q74.15-19.3 74.55-19.38 74.95-19.45 75.27-19.9 75.6-20.35 75.6-21.2L75.6-21.2 75.6-23.5 77.1-23.5 77.1-13.1 75.6-13.1 75.6-15.2Q75.6-16.45 75.05-16.82 74.5-17.2 73.4-17.2L73.4-17.2 63.4-17.2 63.4-4.3Q63.4-3.25 63.85-2.68 64.3-2.1 65.8-2.1L65.8-2.1 75.3-2.1Q77.95-2.1 79.97-3.8 82-5.5 82.1-7.1L82.1-7.1 83.5-6.9ZM121.05-1.4L121.05 0 108.25 0 108.25-1.4 109.84-1.4Q112.05-1.4 112.05-2.8L112.05-2.8Q112.05-3 111.55-4.5L111.55-4.5 108.15-13.4 95.55-13.4 92.25-4.9Q92.25-4.8 91.9-3.68 91.55-2.55 91.55-2.13 91.55-1.7 92.09-1.55 92.65-1.4 94.45-1.4L94.45-1.4 95.25-1.4 95.25 0 85.45 0 85.45-1.4 86.15-1.4Q87.8-1.4 88.55-1.98 89.3-2.55 89.84-3.9L89.84-3.9 100.84-32.6Q101.09-32.65 101.75-33.33 102.4-34 102.95-34.73 103.5-35.45 103.5-35.55 103.5-35.65 103.45-35.7L103.45-35.7 104.15-35.9 116.45-3.7Q117-2.55 117.57-1.98 118.15-1.4 119.25-1.4L119.25-1.4 121.05-1.4ZM96.34-15.5L107.25-15.5 101.84-29.8 96.34-15.5ZM152.04-6.9L150.34 0 123.54 0 123.54-1.5 125.24-1.5Q126.74-1.5 127.19-2.05 127.64-2.6 127.64-3.7L127.64-3.7 127.64-31.3Q127.64-32.4 127.19-32.95 126.74-33.5 125.24-33.5L125.24-33.5 123.54-33.5 123.54-35 136.24-35 136.24-33.5 134.34-33.5Q132.84-33.5 132.39-32.95 131.94-32.4 131.94-31.3L131.94-31.3 131.94-4.4Q131.94-3.3 132.39-2.7 132.84-2.1 134.34-2.1L134.34-2.1 143.84-2.1Q146.49-2.1 148.52-3.83 150.54-5.55 150.54-7.2L150.54-7.2 152.04-6.9ZM169.44-1.4L169.44 0 156.44 0 156.44-1.4 158.44-1.4Q159.94-1.4 160.34-1.98 160.74-2.55 160.74-3.6L160.74-3.6 160.74-30.6Q160.74-31.35 160.64-31.78 160.54-32.2 160.02-32.55 159.49-32.9 158.44-32.9L158.44-32.9 155.44-32.9Q152.79-32.9 151.37-31.28 149.94-29.65 149.84-27.8L149.84-27.8 148.44-28.1 148.94-35 177.04-35 177.54-28.1 176.14-27.8Q176.04-29.6 174.59-31.25 173.14-32.9 170.54-32.9L170.54-32.9 167.54-32.9Q166.44-32.9 165.89-32.52 165.34-32.15 165.24-31.75 165.14-31.35 165.14-30.6L165.14-30.6 165.14-3.6Q165.14-2.9 165.24-2.5 165.34-2.1 165.89-1.75 166.44-1.4 167.54-1.4L167.54-1.4 169.44-1.4ZM216.74-1.4L216.74 0 204.04 0 204.04-1.4 205.64-1.4Q206.74-1.4 207.29-1.78 207.84-2.15 207.94-2.55 208.04-2.95 208.04-3.7L208.04-3.7 208.04-17.1 188.64-17.1 188.64-3.7Q188.64-2.6 189.09-2 189.54-1.4 191.04-1.4L191.04-1.4 192.94-1.4 192.94 0 180.24 0 180.24-1.4 181.94-1.4Q183.44-1.4 183.89-2 184.34-2.6 184.34-3.7L184.34-3.7 184.34-31.3Q184.34-32.4 183.89-33 183.44-33.6 181.94-33.6L181.94-33.6 180.24-33.6 180.24-35 192.94-35 192.94-33.6 191.04-33.6Q189.54-33.6 189.09-33 188.64-32.4 188.64-31.3L188.64-31.3 188.64-19.3 208.04-19.3 208.04-31.3Q208.04-32.05 207.94-32.45 207.84-32.85 207.29-33.23 206.74-33.6 205.64-33.6L205.64-33.6 204.04-33.6 204.04-35 216.74-35 216.74-33.6 214.84-33.6Q213.74-33.6 213.19-33.23 212.64-32.85 212.54-32.45 212.44-32.05 212.44-31.3L212.44-31.3 212.44-3.7Q212.44-2.95 212.54-2.55 212.64-2.15 213.19-1.78 213.74-1.4 214.84-1.4L214.84-1.4 216.74-1.4ZM257.24-2.4L254.64 0.7 253.84 1 245.54-22.9 238.44-2.4 235.84 0.7 235.04 1 223.84-31.3Q223.39-32.4 222.81-32.95 222.24-33.5 221.04-33.5L221.04-33.5 219.34-33.5 219.34-35 231.74-35 231.74-33.5 230.54-33.5Q228.34-33.5 228.34-32.2L228.34-32.2Q228.34-31.8 228.74-30.7L228.74-30.7 237.44-5.4 244.54-25.9 242.64-31.3Q242.04-32.9 241.59-33.2 241.14-33.5 240.34-33.5L240.34-33.5 239.94-33.5 239.94-35 251.14-35 251.14-33.5 249.34-33.5Q247.04-33.5 247.04-32.3L247.04-32.3Q247.04-31.7 247.44-30.7L247.44-30.7 256.24-5.4 264.84-30.1Q265.44-32.1 265.44-32.63 265.44-33.15 264.76-33.33 264.09-33.5 262.04-33.5L262.04-33.5 261.34-33.5 261.34-35 271.13-35 271.13-33.5 270.24-33.5Q268.63-33.5 268.13-33.05 267.63-32.6 267.13-31.1L267.13-31.1 257.24-2.4ZM286.43-1.4L286.43 0 273.73 0 273.73-1.4 275.43-1.4Q276.93-1.4 277.38-2 277.83-2.6 277.83-3.7L277.83-3.7 277.83-31.3Q277.83-32.4 277.38-33 276.93-33.6 275.43-33.6L275.43-33.6 273.73-33.6 273.73-35 286.43-35 286.43-33.6 284.53-33.6Q283.03-33.6 282.58-33 282.13-32.4 282.13-31.3L282.13-31.3 282.13-3.7Q282.13-2.6 282.58-2 283.03-1.4 284.53-1.4L284.53-1.4 286.43-1.4ZM289.93-2.4L289.93-2.4 290.63-8.9 292.33-8.8Q292.33-6.05 295.61-4.38 298.88-2.7 303.06-2.7 307.23-2.7 309.33-3.98 311.43-5.25 311.43-7.2L311.43-7.2Q311.43-10.5 307.93-13.1L307.93-13.1Q306.48-14.15 304.88-14.95L304.88-14.95Q301.23-16.85 300.31-17.38 299.38-17.9 298.23-18.45 297.08-19 296.11-19.63 295.13-20.25 294.03-21.15L294.03-21.15Q291.53-23.15 291.53-25.63 291.53-28.1 292.41-29.95 293.28-31.8 294.61-32.85 295.93-33.9 297.73-34.6L297.73-34.6Q300.78-35.7 304.56-35.7 308.33-35.7 311.83-33.8L311.83-33.8 311.23-28 309.53-28Q309.53-32.7 301.63-32.7L301.63-32.7Q297.98-32.7 296.16-31.55 294.33-30.4 294.33-28.4L294.33-28.4Q294.33-25.2 304.73-20.7L304.73-20.7Q311.58-17.75 313.48-14.15L313.48-14.15Q314.43-12.35 314.43-10.2L314.43-10.2Q314.43-5 310.25-2.15 306.08 0.7 300.18 0.7 294.28 0.7 289.93-2.4ZM346.43-6.9L344.73 0 317.93 0 317.93-1.4 319.63-1.4Q321.08-1.4 321.55-1.95 322.03-2.5 322.03-3.7L322.03-3.7 322.03-31.3Q322.03-32.3 321.4-32.95 320.78-33.6 319.63-33.6L319.63-33.6 317.93-33.6 317.93-35 344.33-35 344.73-28.1 343.33-27.8Q343.33-29.6 341.88-31.25 340.43-32.9 337.83-32.9L337.83-32.9 328.73-32.9Q327.23-32.9 326.78-32.33 326.33-31.75 326.33-30.7L326.33-30.7 326.33-19.3 336.33-19.3Q337.08-19.3 337.48-19.38 337.88-19.45 338.2-19.9 338.53-20.35 338.53-21.2L338.53-21.2 338.53-23.5 340.03-23.5 340.03-13.1 338.53-13.1 338.53-15.2Q338.53-16.45 337.98-16.82 337.43-17.2 336.33-17.2L336.33-17.2 326.33-17.2 326.33-4.3Q326.33-3.25 326.78-2.68 327.23-2.1 328.73-2.1L328.73-2.1 338.23-2.1Q340.88-2.1 342.9-3.8 344.93-5.5 345.03-7.1L345.03-7.1 346.43-6.9Z" opacity="1" transform="matrix(1,0,0,1,0,0)" fill="#000000" class="wordmark-text-0" data-fill-palette-color="primary" id="text-0"></path></svg></g></svg></g></svg></g></svg></g><g><svg viewBox="0 0 111.85062783851126 110.47822230446722" height="110.47822230446722" width="111.85062783851126"><g><svg xmlns="http://www.w3.org/2000/svg" xmlns:xlink="http://www.w3.org/1999/xlink" version="1.1" x="0" y="0" viewBox="1.100000023841858 1.7000000476837158 97.80000305175781 96.5999984741211" style="enable-background:new 0 0 100 100;" xml:space="preserve" height="110.47822230446722" width="111.85062783851126" class="icon-icon-0" data-fill-palette-color="accent" id="icon-0"><rect x="47.4" y="1.7" width="5.1" height="5.1" fill="#000000" data-fill-palette-color="accent"></rect><rect x="47.4" y="93.2" width="5.1" height="5.1" fill="#000000" data-fill-palette-color="accent"></rect><rect x="13.9" y="78.5" width="5.1" height="5.1" fill="#000000" data-fill-palette-color="accent"></rect><rect x="79.5" y="78.5" width="5.1" height="5.1" fill="#000000" data-fill-palette-color="accent"></rect><rect x="13.9" y="15.7" width="5.1" height="5.1" fill="#000000" data-fill-palette-color="accent"></rect><rect x="79.5" y="15.7" width="5.1" height="5.1" fill="#000000" data-fill-palette-color="accent"></rect><rect x="1.1" y="47" width="5.1" height="5.1" fill="#000000" data-fill-palette-color="accent"></rect><rect x="93.8" y="47" width="5.1" height="5.1" fill="#000000" data-fill-palette-color="accent"></rect><path d="M10.4 24.3c-3.8 5.8-6.2 12.2-7.1 19.1L3.2 44h3l0.1-0.5c1-6.7 3.5-13.1 7.3-18.7l0.6-0.8h-3.5L10.4 24.3z" fill="#000000" data-fill-palette-color="accent"></path><path d="M6.1 55.6L6 55.1H3.1l0.1 0.6c0.9 7.1 3.2 13.6 7 19.6l0.2 0.2h3.5l-0.6-0.8C9.5 69 7 62.4 6.1 55.6z" fill="#000000" data-fill-palette-color="accent"></path><path d="M93.7 43.6l0.1 0.5h3l-0.1-0.6c-1-6.9-3.4-13.3-7.1-19.1l-0.2-0.2h-3.5l0.6 0.8C90.2 30.5 92.7 36.9 93.7 43.6z" fill="#000000" data-fill-palette-color="accent"></path><path d="M93.9 55.1l-0.1 0.5c-0.9 6.8-3.4 13.5-7.2 19.1L86 75.6h3.5l0.2-0.2c3.8-5.9 6.2-12.5 7-19.6l0.1-0.6L93.9 55.1 93.9 55.1z" fill="#000000" data-fill-palette-color="accent"></path><path d="M74.1 13l0.1 0.1h5l-1.3-1C71.6 7.3 64 4.2 56.1 3.2l-0.6-0.1v3L56 6.2C62.5 7.1 68.6 9.3 74.1 13z" fill="#000000" data-fill-palette-color="accent"></path><path d="M21.9 12.1l-1.3 1h5l0.1-0.1C31.3 9.3 37.4 7.1 44 6.2l0.5-0.1v-3l-0.6 0.1C35.9 4.2 28.3 7.3 21.9 12.1z" fill="#000000" data-fill-palette-color="accent"></path><path d="M74.6 86.8c-5.6 3.7-12 6.2-18.7 7.1l-0.5 0.1v3l0.6-0.1c8.1-1.1 15.8-4.2 22.3-9.2l1.3-1L74.6 86.8 74.6 86.8z" fill="#000000" data-fill-palette-color="accent"></path><path d="M25.3 86.8l-0.2-0.1h-4.9l1.3 1c6.5 5 14.3 8.1 22.4 9.2l0.6 0.1v-3L44 93.8C37.3 92.9 30.8 90.4 25.3 86.8z" fill="#000000" data-fill-palette-color="accent"></path><path d="M61.5 35.4c0.3 0.2 0.6 0.3 0.9 0.3 0.2 0 0.5-0.1 0.7-0.2 0.3-0.1 0.5-0.3 0.7-0.6l3.5-5.1c0.3-0.4 0.3-0.8 0.3-1.2-0.1-0.4-0.3-0.8-0.7-1.1v0c-0.5-0.3-1-0.4-1.6-0.2l-0.1 0c-0.3 0.1-0.5 0.3-0.6 0.6l-3.5 5.1c-0.3 0.4-0.4 0.8-0.3 1.2C60.9 34.7 61.2 35.1 61.5 35.4z" fill="#000000" data-fill-palette-color="accent"></path><path d="M36.2 35c0.2 0.2 0.4 0.4 0.7 0.5 0.2 0.1 0.4 0.1 0.6 0.1 0.4 0 0.7-0.1 1-0.3 0.3-0.3 0.6-0.7 0.6-1.1 0.1-0.4-0.1-0.9-0.3-1.2l-3.8-4.9c-0.2-0.2-0.4-0.4-0.7-0.5l-0.1 0c-0.5-0.2-1.1-0.1-1.5 0.3-0.3 0.3-0.6 0.7-0.6 1.1-0.1 0.4 0.1 0.9 0.3 1.2L36.2 35z" fill="#000000" data-fill-palette-color="accent"></path><path d="M73.6 50.7L62.9 39c-0.3-0.3-0.8-0.5-1.2-0.5l-23.5 0c-0.1 0-0.1 0-0.2 0-0.4 0-0.8 0.2-1.1 0.5L26.3 50.7c-0.6 0.6-0.5 1.7 0.1 2.3l22.4 22.4c0.3 0.3 0.7 0.5 1.2 0.5 0.4 0 0.9-0.2 1.2-0.5L73.6 53C74.2 52.4 74.2 51.4 73.6 50.7zM68.6 50.2h-8l-4-8.4H61L68.6 50.2zM57 53.5L50 70l-7.1-16.5H57zM43 50.2l4-8.4h5.9l4 8.4H43zM39.2 53.5L45 66.9 31.6 53.5H39.2zM43.3 41.8l-4 8.4h-8l7.6-8.4H43.3zM68.3 53.5L54.9 66.9l5.8-13.4H68.3z" fill="#000000" data-fill-palette-color="accent"></path><path d="M50 33.9C50 33.9 50 33.9 50 33.9c0.6 0 1.1-0.3 1.4-0.8 0.2-0.2 0.2-0.5 0.2-0.8l0.1-6.2c0-0.4-0.2-0.9-0.5-1.2-0.3-0.3-0.7-0.5-1.2-0.5 0 0 0 0 0 0-0.5 0-1 0.3-1.4 0.7l-0.1 0.1c-0.1 0.2-0.2 0.5-0.2 0.8l-0.1 6.2c0 0.4 0.2 0.9 0.5 1.2C49.1 33.7 49.5 33.9 50 33.9z" fill="#000000" data-fill-palette-color="accent"></path></svg></g></svg></g></svg></g><defs></defs></svg><rect width="395.52" height="84.46465626512868" fill="none" stroke="none" visibility="hidden"></rect></g></svg></g></svg>